<?xml version="1.0" encoding="UTF-8" standalone="no"?>
<!-- Created with Inkscape (http://www.inkscape.org/) -->

<svg
   width="138.79532mm"
   height="120.4873mm"
   viewBox="0 0 138.79532 120.4873"
   version="1.1"
   id="svg1"
   xml:space="preserve"
   inkscape:version="1.3.1 (91b66b0783, 2023-11-16)"
   sodipodi:docname="Lgogo_Inkscape.svg"
   xmlns:inkscape="http://www.inkscape.org/namespaces/inkscape"
   xmlns:sodipodi="http://sodipodi.sourceforge.net/DTD/sodipodi-0.dtd"
   xmlns:xlink="http://www.w3.org/1999/xlink"
   xmlns="http://www.w3.org/2000/svg"
   xmlns:svg="http://www.w3.org/2000/svg"><sodipodi:namedview
     id="namedview1"
     pagecolor="#ffffff"
     bordercolor="#000000"
     borderopacity="0.25"
     inkscape:showpageshadow="2"
     inkscape:pageopacity="0.0"
     inkscape:pagecheckerboard="0"
     inkscape:deskcolor="#d1d1d1"
     inkscape:document-units="mm"
     inkscape:zoom="0.25"
     inkscape:cx="1274"
     inkscape:cy="654"
     inkscape:window-width="1920"
     inkscape:window-height="1009"
     inkscape:window-x="1912"
     inkscape:window-y="-8"
     inkscape:window-maximized="1"
     inkscape:current-layer="layer3"
     showgrid="true"
     showguides="true"
     inkscape:lockguides="true"><inkscape:grid
       id="grid8"
       units="mm"
       originx="-4.8360669"
       originy="-19.774937"
       spacingx="1"
       spacingy="0.99999996"
       empcolor="#0099e5"
       empopacity="0.30196078"
       color="#0099e5"
       opacity="0.14901961"
       empspacing="5"
       dotted="false"
       gridanglex="30"
       gridanglez="30"
       visible="true" /><sodipodi:guide
       position="19.999999,-183.71389"
       orientation="1,0"
       id="guide48"
       inkscape:locked="true" /><sodipodi:guide
       position="39.20602,-40.713893"
       orientation="0,-1"
       id="guide49"
       inkscape:locked="true" /><sodipodi:guide
       position="-40,-175.71388"
       orientation="0,-1"
       id="guide50"
       inkscape:locked="true" /><sodipodi:guide
       position="640,-195.71388"
       orientation="1,0"
       id="guide52"
       inkscape:locked="true" /><sodipodi:guide
       position="262.37413,-61.728243"
       orientation="0,-1"
       id="guide53"
       inkscape:locked="true" /><sodipodi:guide
       position="140,-135.71389"
       orientation="1,0"
       id="guide54"
       inkscape:locked="true" /><sodipodi:guide
       position="169.99999,-185.71389"
       orientation="1,0"
       id="guide55"
       inkscape:locked="true" /><sodipodi:guide
       position="170,-150.71389"
       orientation="0,-1"
       id="guide56"
       inkscape:locked="true" /><sodipodi:guide
       position="655,-175.71387"
       orientation="1,0"
       id="guide57"
       inkscape:locked="true" /><sodipodi:guide
       position="530,-55.713892"
       orientation="0,-1"
       id="guide58"
       inkscape:locked="true" /></sodipodi:namedview><defs
     id="defs1"><linearGradient
       id="linearGradient13"
       inkscape:collect="always"><stop
         style="stop-color:#fe6cab;stop-opacity:1;"
         offset="0"
         id="stop13" /><stop
         style="stop-color:#7566fe;stop-opacity:1;"
         offset="1"
         id="stop14" /></linearGradient><linearGradient
       inkscape:collect="always"
       xlink:href="#linearGradient13"
       id="linearGradient15"
       gradientUnits="userSpaceOnUse"
       x1="-297.37619"
       y1="252.09877"
       x2="366.97086"
       y2="252.09877"
       gradientTransform="matrix(0.83333025,0,0,0.89082968,252.64884,-144.5034)" /><linearGradient
       inkscape:collect="always"
       xlink:href="#linearGradient13"
       id="linearGradient16"
       gradientUnits="userSpaceOnUse"
       gradientTransform="matrix(0.64158822,0,0,0.64730539,124.56114,-81.362725)"
       x1="-297.37619"
       y1="252.09877"
       x2="366.97086"
       y2="252.09877" /><linearGradient
       inkscape:collect="always"
       xlink:href="#linearGradient13"
       id="linearGradient17"
       gradientUnits="userSpaceOnUse"
       gradientTransform="matrix(0.79999934,0,0,0.79999934,-149.94508,-139.52837)"
       x1="-297.37619"
       y1="252.09877"
       x2="366.97086"
       y2="252.09877" /><linearGradient
       inkscape:collect="always"
       xlink:href="#linearGradient13"
       id="linearGradient27"
       gradientUnits="userSpaceOnUse"
       gradientTransform="matrix(0.83333025,0,0,0.89082968,257.48542,-144.5034)"
       x1="-297.37619"
       y1="252.09877"
       x2="366.97086"
       y2="252.09877" /></defs><g
     inkscape:groupmode="layer"
     id="layer3"
     inkscape:label="icon"
     transform="translate(-4.836067,-19.774937)"><path
       id="path46-9"
       style="font-weight:600;font-size:566.667px;font-family:Inter;-inkscape-font-specification:'Inter Semi-Bold';white-space:pre;display:inline;fill:url(#linearGradient15);fill-opacity:1;stroke-width:0.225669"
       d="m 7.0411004,19.774938 c -1.217707,2e-6 -2.205035,1.055424 -2.205033,2.357152 v 115.54794 c 2e-6,1.30172 0.98733,2.35715 2.205033,2.35715 H 34.135054 c 1.217704,0 2.204514,-1.05543 2.204516,-2.35715 v -8.39653 c -2e-6,-1.30171 -0.986812,-2.3567 -2.204516,-2.3567 H 22.204516 c -1.217707,0 -2.204515,-1.05543 -2.204517,-2.35716 V 35.289081 c -3e-6,-1.301731 0.986806,-2.356712 2.204517,-2.356707 h 11.930538 c 1.217704,0 2.204514,-1.055428 2.204516,-2.357153 V 22.13209 c 2e-6,-1.301729 -0.986809,-2.357152 -2.204516,-2.357152 z"
       inkscape:export-filename="..\..\..\..\Desktop\Revised Logo\Icon_logo.png"
       inkscape:export-xdpi="96"
       inkscape:export-ydpi="96"
       sodipodi:nodetypes="cccsssssscccsccsc" /><path
       d="m 30.85518,50.789249 c -0.656262,0 -1.188274,0.536747 -1.188274,1.198862 v 56.023779 c 0,0.66211 0.532005,1.19887 1.188274,1.19887 h 7.595806 c 0.656268,0 1.188279,-0.53676 1.188279,-1.19887 V 71.667003 c 6.42e-4,-0.580614 0.792155,-0.739061 1.012549,-0.20271 l 14.920743,36.466987 c 0.2744,0.67072 0.922636,1.10827 1.641836,1.10821 h 5.074366 c 0.71924,-2e-5 1.367585,-0.43732 1.642497,-1.10787 l 14.95059,-36.461645 c 0.213986,-0.520127 0.981575,-0.366134 0.982043,0.197028 v 36.344887 c 0,0.66211 0.532011,1.19887 1.188288,1.19887 h 7.595787 c 0.65627,0 1.18829,-0.53676 1.18829,-1.19887 V 51.988111 c 0,-0.662115 -0.53202,-1.198862 -1.18829,-1.198862 H 78.30727 c -0.720238,-1.1e-4 -1.370473,0.435049 -1.650465,1.104536 L 60.29648,91.015062 c -0.32492,0.77696 -1.418771,0.769561 -1.733346,-0.01172 L 42.831096,51.900127 C 42.560937,51.22856 41.914259,50.789241 41.195893,50.789241 Z"
       style="font-weight:600;font-size:566.667px;font-family:Inter;-inkscape-font-specification:'Inter Semi-Bold';white-space:pre;display:inline;fill:url(#linearGradient16);fill-opacity:1;stroke-width:0.168791"
       id="path1" /><path
       d="m 127.07385,20 c -0.3797,-2e-5 -0.71729,0.241662 -0.83964,0.601103 l -6.39796,18.7978 c -0.10033,0.294891 0.11887,0.601067 0.43037,0.601096 h 2.46889 c 0.37862,5.7e-5 0.71416,-0.243836 0.83096,-0.603992 l 1.20715,-3.724004 c 0.1168,-0.360156 0.45234,-0.604049 0.83096,-0.603992 h 5.99901 c 0.37872,-6.2e-5 0.71438,0.243798 0.83137,0.603992 l 1.20964,3.724004 c 0.11699,0.360191 0.45266,0.60405 0.83137,0.603992 h 2.46848 c 0.31141,-1.18e-4 0.53045,-0.306339 0.42995,-0.601096 l -6.40664,-18.7978 C 130.84526,20.241596 130.50752,19.999927 130.12772,20 Z m 13.68969,0 c -0.3507,0 -0.635,0.284299 -0.635,0.634999 V 39.365 c 0,0.3507 0.2843,0.634999 0.635,0.634999 h 2.23284 c 0.3507,0 0.635,-0.284299 0.635,-0.634999 V 20.634999 c 0,-0.3507 -0.2843,-0.634999 -0.635,-0.634999 z m -12.19852,4.437141 c 0.0939,-0.01032 0.19411,0.06024 0.27326,0.216631 0.88758,1.753663 1.62423,4.778044 2.26591,6.898587 0.10148,0.335383 -0.095,0.605647 -0.44566,0.605647 h -4.11055 c -0.31344,-7.7e-5 -0.53568,-0.305821 -0.43904,-0.603991 l 2.22043,-6.848571 c 0.0541,-0.1668 0.14177,-0.257959 0.23565,-0.268303 z"
       style="font-weight:600;font-size:566.667px;font-family:Inter;-inkscape-font-specification:'Inter Semi-Bold';white-space:pre;display:inline;fill:url(#linearGradient17);fill-opacity:1;stroke-width:0.209535"
       id="path1-6" /><path
       id="path26"
       style="font-weight:600;font-size:566.667px;font-family:Inter;-inkscape-font-specification:'Inter Semi-Bold';white-space:pre;display:inline;fill:url(#linearGradient27);fill-opacity:1;stroke-width:0.225669"
       d="m 85.537784,20 c -1.217709,1e-6 -2.205038,1.055424 -2.205038,2.357151 v 8.443131 c 0,1.301724 0.987329,2.357151 2.205038,2.357152 h 11.93002 c 1.2177,2e-6 2.20503,1.05498 2.20503,2.356709 V 124.7947 c 0,1.30173 -0.98733,2.35716 -2.20503,2.35716 h -11.93002 c -1.217709,0 -2.205038,1.05499 -2.205038,2.3567 v 8.39653 c 0,1.30172 0.987329,2.35715 2.205038,2.35715 h 27.093946 c 1.2177,0 2.20452,-1.05543 2.20452,-2.35715 V 22.357151 c 0,-1.301731 -0.98681,-2.357155 -2.20452,-2.357151 z"
       inkscape:export-filename="path46-9.svg"
       inkscape:export-xdpi="96"
       inkscape:export-ydpi="96"
       sodipodi:nodetypes="csssssssssssssscc" /></g></svg>
